<svg id="logo" xmlns="http://www.w3.org/2000/svg" width="85" height="85" viewBox="0 0 85 85">
  <g id="Grupo_9103" data-name="Grupo 9103">
    <rect id="Rectángulo_13485" data-name="Rectángulo 13485" width="85" height="85" fill="#f85900"/>
  </g>
  <g id="Grupo_8860" data-name="Grupo 8860" transform="translate(16.627 55.534)">
    <g id="Grupo_8858" data-name="Grupo 8858" transform="translate(0 0)">
      <g id="Grupo_8854" data-name="Grupo 8854">
        <path id="Trazado_5833" data-name="Trazado 5833" d="M246.353,223.221l4.485,7.362h.024v-7.362h1.074V232.3h-1.24l-4.449-7.286h-.024V232.3h-1.074v-9.078Z" transform="translate(-245.148 -223.221)" fill="#fff"/>
      </g>
      <g id="Grupo_8855" data-name="Grupo 8855" transform="translate(8.122 2.352)">
        <path id="Trazado_5834" data-name="Trazado 5834" d="M278.445,237.809a2.677,2.677,0,0,1-1.741.559,3,3,0,0,1-1.283-.254,2.542,2.542,0,0,1-.912-.712,3.084,3.084,0,0,1-.554-1.093,5.58,5.58,0,0,1-.209-1.386,4.206,4.206,0,0,1,.215-1.374,3.328,3.328,0,0,1,.6-1.081,2.752,2.752,0,0,1,.919-.712,2.655,2.655,0,0,1,1.162-.254,2.412,2.412,0,0,1,1.366.362,2.8,2.8,0,0,1,.87.922,3.8,3.8,0,0,1,.454,1.22,5.564,5.564,0,0,1,.1,1.259h-4.616a2.779,2.779,0,0,0,.1.82,1.9,1.9,0,0,0,.346.686,1.719,1.719,0,0,0,.608.477,1.992,1.992,0,0,0,.871.178,1.677,1.677,0,0,0,1.056-.318,1.558,1.558,0,0,0,.542-.967h1A2.667,2.667,0,0,1,278.445,237.809Zm-.244-4.221a1.874,1.874,0,0,0-.369-.591,1.774,1.774,0,0,0-.549-.394,1.646,1.646,0,0,0-.7-.146,1.675,1.675,0,0,0-.71.146,1.652,1.652,0,0,0-.543.4,1.953,1.953,0,0,0-.357.591,2.372,2.372,0,0,0-.155.718h3.543A2.354,2.354,0,0,0,278.2,233.587Z" transform="translate(-273.746 -231.502)" fill="#fff"/>
      </g>
      <g id="Grupo_8856" data-name="Grupo 8856" transform="translate(14.205 2.504)">
        <path id="Trazado_5835" data-name="Trazado 5835" d="M295.33,232.039h1.3l1.479,2.3,1.538-2.3h1.217l-2.123,3.026,2.385,3.548h-1.3l-1.718-2.721-1.717,2.721h-1.229l2.315-3.458Z" transform="translate(-295.162 -232.039)" fill="#fff"/>
      </g>
      <g id="Grupo_8857" data-name="Grupo 8857" transform="translate(20.384 0.534)">
        <path id="Trazado_5836" data-name="Trazado 5836" d="M320.209,227.071v.954h-1.228v4.082a1.252,1.252,0,0,0,.03.305.313.313,0,0,0,.113.178.486.486,0,0,0,.233.083,3.281,3.281,0,0,0,.387.019h.466v.954h-.776a3.427,3.427,0,0,1-.674-.057.961.961,0,0,1-.453-.21.906.906,0,0,1-.257-.432,2.669,2.669,0,0,1-.083-.737v-4.183h-1.049v-.954h1.049V225.1h1.014v1.97Z" transform="translate(-316.917 -225.101)" fill="#fff"/>
      </g>
    </g>
  </g>
  <path id="Trazado_5837" data-name="Trazado 5837" d="M249.821,144.852h-5.556v20.654h13.553v-4.589h-8Z" transform="translate(-228.065 -112.498)" fill="#fff"/>
  <path id="Trazado_5838" data-name="Trazado 5838" d="M318.106,144.852h-5.952l-6.457,8.925v-8.925h-5.562v20.654H305.7v-9.579l6.551,9.579H318.9l-7.659-11.187Z" transform="translate(-266.975 -112.498)" fill="#fff"/>
  <path id="Trazado_5839" data-name="Trazado 5839" d="M370.178,148.864c0-2.254,4.993-2.5,8.365-.9v-4.41c-7.606-1.717-14.094-.1-14.094,5.786,0,7,9.772,5.873,9.772,8.778,0,4.722-10.055,1.09-10.055,1.09l3.382,4.946c3.428.906,12.441,1.509,12.441-6.474,0-7.346-9.812-5.385-9.812-8.818" transform="translate(-311.795 -111.104)" fill="#fff"/>
</svg>
